# xmcd
#
# Track frame offsets:
#	150
#	2902
#	14062
#	31687
#	46800
#	65362
#	77250
#	98850
#	101124
#	111375
#	131587
#	145409
#	164325
#	177960
#
# Disc length: 2518 seconds
# Revision: 0
# Processed by: cddbd v1.5.2PL0 Copyright (c) Steve Scherf et al.
# Submitted via: dBpowerAMP V12.0
#
DISCID=b509d40e
DTITLE=Professor Louie and the Crowmatix - Music From Hurley Mountain
DYEAR=2005
DGENRE=Blues
TTITLE0=Golden Morning
TTITLE1=Hurley Mountain
TTITLE2=Ulster Outcry
TTITLE3=Ashton
TTITLE4=Family Reunion
TTITLE5=Crop Dustin' Blues
TTITLE6=You Got Me Dizzy
TTITLE7=John's Tractor
TTITLE8=4 Farmers
TTITLE9=Light In Your Eyes
TTITLE10=Rock 'n'Roll Barn
TTITLE11=Lets' Go Home
TTITLE12=Angel Band
TTITLE13=Good Night Hurley Moon
EXTD=
EXTT0=
EXTT1=
EXTT2=
EXTT3=
EXTT4=
EXTT5=
EXTT6=
EXTT7=
EXTT8=
EXTT9=
EXTT10=
EXTT11=
EXTT12=
EXTT13=
PLAYORDER=
